<?xml version="1.0" encoding="UTF-8" standalone="no"?>
<!DOCTYPE svg PUBLIC "-//W3C//DTD SVG 1.1//EN" "http://www.w3.org/Graphics/SVG/1.1/DTD/svg11.dtd">
<svg width="500px" height="250px" version="1.1" xmlns="http://www.w3.org/2000/svg" xmlns:xlink="http://www.w3.org/1999/xlink" xml:space="preserve" xmlns:serif="http://www.serif.com/" style="fill-rule:evenodd;clip-rule:evenodd;stroke-linecap:round;stroke-linejoin:round;stroke-miterlimit:1.5;">
    <g transform="matrix(1,0,0,1,27.5203,6.31518)">
        <path d="M122.827,197.943L67.671,150.203L59.328,89.021L103.36,54.722L174.739,33.401L229.896,31.547L291.541,23.204L342.063,59.357L385.632,106.634L380.07,159.936L352.723,193.772L270.22,212.312L189.108,214.166L122.827,197.943Z" style="fill:url(#_Linear1);stroke:rgb(89,133,143);stroke-opacity:0.62;stroke-width:2.28px;"/>
    </g>
    <g transform="matrix(0.535168,0,0,0.535168,78.3834,57.3931)">
        <g transform="matrix(72.4715,0,0,72.4715,154.345,144.641)">
            <path d="M0.563,0.02C0.514,0.02 0.443,-0.023 0.352,-0.11L0.206,-0.257L0.206,-0.25L0.205,0.005C0.205,0.038 0.191,0.054 0.163,0.054C0.144,0.054 0.129,0.046 0.118,0.029C0.109,0.016 0.104,0.001 0.104,-0.014C0.104,-0.09 0.107,-0.204 0.111,-0.356C0.116,-0.508 0.118,-0.621 0.118,-0.697C0.118,-0.711 0.123,-0.723 0.132,-0.733C0.141,-0.743 0.153,-0.748 0.167,-0.748C0.181,-0.748 0.192,-0.743 0.201,-0.733C0.211,-0.723 0.215,-0.711 0.215,-0.697C0.215,-0.666 0.213,-0.617 0.209,-0.55C0.206,-0.485 0.204,-0.436 0.204,-0.402C0.248,-0.443 0.297,-0.495 0.352,-0.558L0.492,-0.72C0.503,-0.733 0.516,-0.739 0.529,-0.739C0.542,-0.739 0.554,-0.734 0.564,-0.725C0.574,-0.715 0.579,-0.703 0.579,-0.689C0.579,-0.667 0.537,-0.61 0.453,-0.517C0.395,-0.454 0.335,-0.391 0.273,-0.331C0.313,-0.29 0.374,-0.231 0.457,-0.154L0.508,-0.111C0.527,-0.097 0.547,-0.086 0.568,-0.079C0.594,-0.07 0.607,-0.054 0.607,-0.03C0.607,-0.019 0.604,-0.009 0.597,0.001C0.588,0.014 0.577,0.02 0.563,0.02Z" style="fill:rgb(248,248,248);fill-rule:nonzero;"/>
        </g>
        <g transform="matrix(72.4715,0,0,72.4715,198.614,144.641)">
            <path d="M0.442,0.035C0.414,0.035 0.399,0.019 0.395,-0.011L0.381,-0.118C0.377,-0.156 0.375,-0.192 0.375,-0.225C0.375,-0.234 0.375,-0.25 0.376,-0.271C0.377,-0.293 0.378,-0.309 0.378,-0.318C0.378,-0.388 0.365,-0.423 0.339,-0.423C0.302,-0.423 0.268,-0.402 0.234,-0.358C0.204,-0.319 0.181,-0.269 0.164,-0.209C0.163,-0.196 0.162,-0.18 0.16,-0.161C0.158,-0.145 0.157,-0.129 0.157,-0.114C0.157,-0.104 0.158,-0.089 0.16,-0.07C0.162,-0.05 0.163,-0.036 0.163,-0.026C0.163,-0.011 0.158,0.001 0.149,0.01C0.14,0.019 0.129,0.023 0.115,0.023C0.1,0.023 0.089,0.019 0.08,0.01C0.071,0.001 0.067,-0.011 0.067,-0.026C0.067,-0.036 0.066,-0.05 0.064,-0.07C0.062,-0.089 0.061,-0.104 0.061,-0.114C0.061,-0.147 0.063,-0.194 0.068,-0.253C0.072,-0.313 0.075,-0.359 0.075,-0.393C0.075,-0.403 0.074,-0.418 0.073,-0.439C0.072,-0.459 0.071,-0.475 0.071,-0.485C0.071,-0.499 0.076,-0.511 0.085,-0.52C0.094,-0.529 0.106,-0.533 0.12,-0.533C0.15,-0.533 0.166,-0.512 0.169,-0.47L0.17,-0.413C0.225,-0.486 0.281,-0.522 0.339,-0.522C0.391,-0.522 0.427,-0.499 0.448,-0.453C0.462,-0.423 0.469,-0.377 0.471,-0.317L0.471,-0.268L0.47,-0.223C0.47,-0.196 0.474,-0.161 0.481,-0.118C0.488,-0.075 0.491,-0.04 0.491,-0.014C0.491,0.001 0.487,0.012 0.477,0.021C0.468,0.03 0.456,0.035 0.442,0.035Z" style="fill:rgb(248,248,248);fill-rule:nonzero;"/>
        </g>
        <g transform="matrix(72.4715,0,0,72.4715,236.548,144.641)">
            <path d="M0.251,0.029C0.196,0.029 0.149,0.009 0.11,-0.032C0.066,-0.077 0.043,-0.137 0.041,-0.213C0.039,-0.286 0.057,-0.351 0.096,-0.407C0.142,-0.473 0.205,-0.506 0.287,-0.506C0.352,-0.506 0.401,-0.477 0.435,-0.417C0.461,-0.369 0.474,-0.311 0.473,-0.243C0.472,-0.171 0.453,-0.109 0.417,-0.058C0.375,0 0.32,0.029 0.251,0.029ZM0.28,-0.407C0.232,-0.408 0.195,-0.385 0.168,-0.339C0.147,-0.302 0.137,-0.26 0.137,-0.213C0.137,-0.166 0.15,-0.129 0.175,-0.103C0.197,-0.081 0.222,-0.07 0.251,-0.07C0.285,-0.07 0.314,-0.082 0.338,-0.107C0.366,-0.134 0.381,-0.171 0.382,-0.218C0.387,-0.344 0.353,-0.407 0.28,-0.407Z" style="fill:rgb(248,248,248);fill-rule:nonzero;"/>
        </g>
        <g transform="matrix(72.4715,0,0,72.4715,274.659,144.641)">
            <path d="M0.652,-0.437C0.627,-0.331 0.594,-0.211 0.553,-0.077C0.544,-0.048 0.528,-0.017 0.507,0.014C0.496,0.031 0.48,0.04 0.461,0.04C0.425,0.039 0.398,-0.005 0.378,-0.093C0.371,-0.121 0.365,-0.159 0.358,-0.207L0.342,-0.316L0.302,-0.223L0.228,-0.021C0.223,-0.009 0.217,0.001 0.209,0.007C0.199,0.026 0.184,0.036 0.162,0.037C0.137,0.038 0.113,-0.011 0.09,-0.109C0.079,-0.159 0.067,-0.228 0.055,-0.314L0.043,-0.387C0.039,-0.417 0.037,-0.441 0.037,-0.461C0.037,-0.475 0.042,-0.486 0.052,-0.495C0.061,-0.504 0.073,-0.508 0.086,-0.508C0.111,-0.508 0.126,-0.495 0.132,-0.468C0.137,-0.449 0.14,-0.425 0.143,-0.396L0.15,-0.325L0.179,-0.105C0.215,-0.206 0.252,-0.321 0.291,-0.452C0.302,-0.488 0.32,-0.506 0.347,-0.506C0.373,-0.506 0.39,-0.486 0.399,-0.446C0.408,-0.408 0.418,-0.349 0.431,-0.27C0.444,-0.188 0.456,-0.124 0.466,-0.078L0.501,-0.211L0.564,-0.477C0.569,-0.497 0.583,-0.507 0.606,-0.507C0.62,-0.507 0.632,-0.502 0.642,-0.493C0.652,-0.484 0.657,-0.472 0.657,-0.459C0.657,-0.458 0.656,-0.45 0.652,-0.437Z" style="fill:rgb(248,248,248);fill-rule:nonzero;"/>
        </g>
        <g transform="matrix(72.4715,0,0,72.4715,324.236,144.641)">
            <path d="M0.192,-0.384L0.185,-0.141C0.185,-0.115 0.183,-0.078 0.181,-0.028C0.177,0.005 0.161,0.021 0.133,0.021C0.101,0.021 0.085,0.004 0.085,-0.029C0.085,-0.068 0.087,-0.127 0.09,-0.206C0.094,-0.285 0.096,-0.344 0.096,-0.384C0.096,-0.435 0.097,-0.494 0.098,-0.56C0.1,-0.627 0.101,-0.685 0.101,-0.737C0.101,-0.769 0.117,-0.786 0.148,-0.786C0.181,-0.786 0.197,-0.769 0.197,-0.737C0.197,-0.685 0.196,-0.627 0.194,-0.56C0.193,-0.494 0.192,-0.435 0.192,-0.384Z" style="fill:rgb(248,248,248);fill-rule:nonzero;"/>
        </g>
        <g transform="matrix(72.4715,0,0,72.4715,344.087,144.641)">
            <path d="M0.296,0.022C0.222,0.022 0.163,0.004 0.117,-0.033C0.067,-0.073 0.042,-0.13 0.042,-0.204C0.042,-0.288 0.063,-0.359 0.104,-0.417C0.149,-0.479 0.208,-0.51 0.283,-0.51C0.337,-0.51 0.381,-0.501 0.415,-0.483C0.457,-0.46 0.478,-0.426 0.478,-0.379C0.478,-0.347 0.46,-0.317 0.423,-0.291C0.407,-0.279 0.372,-0.261 0.319,-0.236L0.133,-0.147C0.151,-0.12 0.174,-0.1 0.201,-0.086C0.228,-0.073 0.26,-0.066 0.296,-0.066C0.318,-0.066 0.345,-0.07 0.375,-0.079C0.413,-0.089 0.438,-0.103 0.449,-0.121C0.46,-0.138 0.472,-0.147 0.485,-0.147C0.496,-0.147 0.506,-0.143 0.515,-0.134C0.524,-0.125 0.529,-0.115 0.529,-0.104C0.529,-0.068 0.5,-0.037 0.441,-0.011C0.392,0.011 0.343,0.022 0.296,0.022ZM0.283,-0.422C0.243,-0.422 0.21,-0.407 0.184,-0.376C0.157,-0.345 0.138,-0.299 0.125,-0.237L0.274,-0.309C0.333,-0.337 0.375,-0.362 0.4,-0.383C0.372,-0.409 0.333,-0.422 0.283,-0.422Z" style="fill:rgb(248,248,248);fill-rule:nonzero;"/>
        </g>
        <g transform="matrix(72.4715,0,0,72.4715,383.791,144.641)">
            <path d="M0.518,-0.431C0.514,-0.383 0.512,-0.335 0.512,-0.288C0.512,-0.179 0.517,-0.097 0.527,-0.042C0.528,-0.037 0.528,-0.034 0.528,-0.031C0.528,-0.018 0.523,-0.007 0.514,0.001C0.505,0.01 0.494,0.014 0.482,0.014C0.462,0.014 0.447,0 0.438,-0.03C0.415,-0.013 0.39,0 0.365,0.009C0.34,0.018 0.313,0.022 0.286,0.022C0.219,0.022 0.163,0 0.119,-0.045C0.073,-0.091 0.05,-0.15 0.05,-0.222C0.05,-0.309 0.073,-0.378 0.119,-0.431C0.165,-0.483 0.225,-0.509 0.299,-0.509C0.337,-0.509 0.366,-0.503 0.386,-0.492L0.432,-0.458C0.437,-0.595 0.442,-0.687 0.448,-0.735C0.452,-0.764 0.467,-0.778 0.493,-0.778C0.522,-0.778 0.537,-0.763 0.537,-0.731C0.537,-0.686 0.531,-0.586 0.518,-0.431ZM0.301,-0.418C0.246,-0.418 0.205,-0.402 0.178,-0.37C0.15,-0.337 0.137,-0.289 0.137,-0.224C0.137,-0.182 0.152,-0.146 0.181,-0.115C0.211,-0.085 0.246,-0.07 0.286,-0.07C0.313,-0.07 0.337,-0.075 0.355,-0.085C0.367,-0.091 0.385,-0.104 0.41,-0.125C0.415,-0.13 0.419,-0.135 0.424,-0.141L0.422,-0.225L0.423,-0.282L0.424,-0.339C0.411,-0.366 0.395,-0.385 0.375,-0.399C0.354,-0.412 0.329,-0.418 0.301,-0.418Z" style="fill:rgb(248,248,248);fill-rule:nonzero;"/>
        </g>
        <g transform="matrix(72.4715,0,0,72.4715,426.361,144.641)">
            <path d="M0.47,-0.21L0.458,-0.046C0.457,0.019 0.45,0.072 0.438,0.113C0.424,0.166 0.4,0.205 0.368,0.23C0.329,0.26 0.273,0.275 0.199,0.275C0.155,0.275 0.119,0.272 0.09,0.267C0.049,0.258 0.028,0.242 0.028,0.216C0.028,0.187 0.042,0.172 0.071,0.172C0.083,0.172 0.102,0.175 0.129,0.181C0.157,0.187 0.187,0.189 0.22,0.188C0.283,0.187 0.326,0.157 0.35,0.098C0.365,0.058 0.374,-0.003 0.375,-0.085C0.357,-0.053 0.336,-0.028 0.312,-0.012C0.288,0.004 0.26,0.012 0.229,0.012C0.17,0.012 0.122,-0.008 0.085,-0.048C0.048,-0.088 0.029,-0.14 0.029,-0.205C0.029,-0.292 0.055,-0.363 0.105,-0.417C0.157,-0.472 0.228,-0.5 0.318,-0.5C0.348,-0.5 0.374,-0.496 0.394,-0.488C0.415,-0.48 0.43,-0.469 0.441,-0.453C0.476,-0.452 0.493,-0.433 0.493,-0.395C0.493,-0.372 0.49,-0.341 0.483,-0.302C0.475,-0.257 0.471,-0.227 0.47,-0.21ZM0.313,-0.422C0.251,-0.422 0.203,-0.401 0.169,-0.358C0.139,-0.319 0.124,-0.271 0.124,-0.211C0.124,-0.164 0.133,-0.129 0.151,-0.105C0.169,-0.081 0.196,-0.069 0.231,-0.069C0.264,-0.069 0.296,-0.088 0.327,-0.125C0.355,-0.159 0.371,-0.193 0.375,-0.227C0.382,-0.262 0.389,-0.317 0.397,-0.392C0.384,-0.402 0.37,-0.41 0.356,-0.415C0.342,-0.419 0.328,-0.422 0.313,-0.422Z" style="fill:rgb(248,248,248);fill-rule:nonzero;"/>
        </g>
        <g transform="matrix(72.4715,0,0,72.4715,464.826,144.641)">
            <path d="M0.296,0.022C0.222,0.022 0.163,0.004 0.117,-0.033C0.067,-0.073 0.042,-0.13 0.042,-0.204C0.042,-0.288 0.063,-0.359 0.104,-0.417C0.149,-0.479 0.208,-0.51 0.283,-0.51C0.337,-0.51 0.381,-0.501 0.415,-0.483C0.457,-0.46 0.478,-0.426 0.478,-0.379C0.478,-0.347 0.46,-0.317 0.423,-0.291C0.407,-0.279 0.372,-0.261 0.319,-0.236L0.133,-0.147C0.151,-0.12 0.174,-0.1 0.201,-0.086C0.228,-0.073 0.26,-0.066 0.296,-0.066C0.318,-0.066 0.345,-0.07 0.375,-0.079C0.413,-0.089 0.438,-0.103 0.449,-0.121C0.46,-0.138 0.472,-0.147 0.485,-0.147C0.496,-0.147 0.506,-0.143 0.515,-0.134C0.524,-0.125 0.529,-0.115 0.529,-0.104C0.529,-0.068 0.5,-0.037 0.441,-0.011C0.392,0.011 0.343,0.022 0.296,0.022ZM0.283,-0.422C0.243,-0.422 0.21,-0.407 0.184,-0.376C0.157,-0.345 0.138,-0.299 0.125,-0.237L0.274,-0.309C0.333,-0.337 0.375,-0.362 0.4,-0.383C0.372,-0.409 0.333,-0.422 0.283,-0.422Z" style="fill:rgb(248,248,248);fill-rule:nonzero;"/>
        </g>
    </g>
    <defs>
        <linearGradient id="_Linear1" x1="0" y1="0" x2="1" y2="0" gradientUnits="userSpaceOnUse" gradientTransform="matrix(224.797,98.7254,-98.7254,224.797,115.411,73.2619)"><stop offset="0" style="stop-color:rgb(59,149,126);stop-opacity:1"/><stop offset="1" style="stop-color:rgb(26,57,93);stop-opacity:1"/></linearGradient>
    </defs>
</svg>
